<svg width="128" height="128" viewBox="0 0 128 128" fill="none" xmlns="http://www.w3.org/2000/svg">
  <path d="M32 36C32 26.059 40.059 18 50 18H60C64.418 18 68 21.582 68 26V46C68 50.418 64.418 54 60 54H50V64C50 68.418 46.418 72 42 72H32C27.582 72 24 68.418 24 64V46C24 41.582 27.582 38 32 38V36Z" fill="currentColor" opacity="0.2"/>
  <path d="M96 36C96 26.059 104.059 18 114 18H124C128.418 18 132 21.582 132 26V46C132 50.418 128.418 54 124 54H114V64C114 68.418 110.418 72 106 72H96C91.582 72 88 68.418 88 64V46C88 41.582 91.582 38 96 38V36Z" fill="currentColor" opacity="0.2"/>
</svg> 